<svg xmlns="http://www.w3.org/2000/svg" xmlns:xlink="http://www.w3.org/1999/xlink" width="1996.263" height="1336.225" viewBox="0 0 1996.263 1336.225">
  <defs>
    <clipPath id="clip-path">
      <path id="Path_482" data-name="Path 482" d="M105.973,741.153a14.737,14.737,0,0,1-8.5-25.183c30.618-29.908,86.36-86.08,97.523-109.15,10.787-22.293,22.32-46.578,28.384-59.382a14.724,14.724,0,0,1,14.315-8.4c28,1.9,106.751,7.091,133.3,7.091,25.862,0,118.1-2.953,157.124-8.075a14.717,14.717,0,0,1,16.352,17.385c-2.649,13.605-9.227,33.631-24.764,60.2-31.366,53.624-50.4,117.608-99.438,146.723a14.981,14.981,0,0,1-7.7,2.14c-19.016-.053-102.385-.52-142.883-4.662-45.646-4.668-100.63-14-140.571-16.6C120.009,742.648,112.358,741.921,105.973,741.153Z" transform="translate(-93.003 -537.926)" fill="none"/>
    </clipPath>
  </defs>
  <g id="Project_management" data-name="Project management" transform="translate(215.298 -227.449)">
    <g id="BG" transform="translate(0 -0.168)">
      <path id="Path_464" data-name="Path 464" d="M1558.479,1452.086s222.486-415.564,222.486-584.886-45.619-217.942-122.834-330.335S1501.285,414.014,1472.1,417.628c-59.863,7.471-119.537,28.058-179.262,32.618-289,22.063-487.017-324.625-773.619-332.729-64.976-1.852-136.384,17.213-186.607,74.457-27.257,31.072-45.7,70.9-57.138,112.224-13.348,47.884-5.736,111.583-52.942,140.29-34.6,21-76.108,17.7-111.832,18.106-36.851.382-118.5,119.8-200,367.172s-126,622.32-126,622.32H0C298.622,1369.25,1187.421,1356.6,1558.479,1452.086Z" transform="translate(0 111.756)" fill="#edf2f9"/>
      <path id="Path_465" data-name="Path 465" d="M32.2,884.518c-121.824,29.332-123.93,158.011-123.93,158.011H1760.033S1828.226,652.409,1559.345,645,154.024,855.186,32.2,884.518Z" transform="translate(-43 517.471)" fill="#c6ddff"/>
    </g>
    <g id="Iphone" transform="translate(665.086 340.267)">
      <g id="Group_93" data-name="Group 93">
        <path id="Path_2230" data-name="Path 2230" d="M52.939,0H281.617a52.939,52.939,0,0,1,52.939,52.939V635.831a52.939,52.939,0,0,1-52.939,52.939H52.939A52.939,52.939,0,0,1,0,635.831V52.939A52.939,52.939,0,0,1,52.939,0Z" transform="translate(14.045)" fill="#8dbffc"/>
        <path id="Path_2229" data-name="Path 2229" d="M52.939,0H281.617a52.939,52.939,0,0,1,52.939,52.939V635.831a52.939,52.939,0,0,1-52.939,52.939H52.939A52.939,52.939,0,0,1,0,635.831V52.939A52.939,52.939,0,0,1,52.939,0Z" fill="#192684"/>
        <path id="Path_2228" data-name="Path 2228" d="M50.01,0h203.3a50.01,50.01,0,0,1,50.01,50.01V609.226a50.01,50.01,0,0,1-50.01,50.01H50.01A50.01,50.01,0,0,1,0,609.226V50.01A50.01,50.01,0,0,1,50.01,0Z" transform="translate(13.82 15.568)" fill="#fff"/>
        <path id="Path_466" data-name="Path 466" d="M515.067,211.97H419.6a37.1,37.1,0,0,1-37.1-37.1H552.167A37.1,37.1,0,0,1,515.067,211.97Z" transform="translate(-302.03 -174.127)" fill="#192684"/>
      </g>
      <path id="Path_2227" data-name="Path 2227" d="M10.87,0H85.939a10.87,10.87,0,0,1,10.87,10.87V85.939a10.87,10.87,0,0,1-10.87,10.87H10.87A10.87,10.87,0,0,1,0,85.939V10.87A10.87,10.87,0,0,1,10.87,0Z" transform="translate(35.483 100.324)" fill="#cadcfc"/>
      <path id="Path_2226" data-name="Path 2226" d="M10.87,0H85.939a10.87,10.87,0,0,1,10.87,10.87V85.939a10.87,10.87,0,0,1-10.87,10.87H10.87A10.87,10.87,0,0,1,0,85.939V10.87A10.87,10.87,0,0,1,10.87,0Z" transform="translate(35.483 229.983)" fill="#fdbd28"/>
      <path id="Path_2225" data-name="Path 2225" d="M2.717,0H82.881A2.717,2.717,0,0,1,85.6,2.717V8.152a2.717,2.717,0,0,1-2.717,2.717H2.717A2.717,2.717,0,0,1,0,8.152V2.717A2.717,2.717,0,0,1,2.717,0Z" transform="translate(167.278 98.286)" fill="#2355f5"/>
      <path id="Path_2224" data-name="Path 2224" d="M2.717,0H119.34a2.717,2.717,0,0,1,2.717,2.717V8.152a2.717,2.717,0,0,1-2.717,2.717H2.717A2.717,2.717,0,0,1,0,8.152V2.717A2.717,2.717,0,0,1,2.717,0Z" transform="translate(167.278 199.51)" fill="#97bff7"/>
      <path id="Path_2223" data-name="Path 2223" d="M2.717,0H80.5a2.717,2.717,0,0,1,2.717,2.717V8.152A2.717,2.717,0,0,1,80.5,10.87H2.717A2.717,2.717,0,0,1,0,8.152V2.717A2.717,2.717,0,0,1,2.717,0Z" transform="translate(167.278 266.993)" fill="#cadcfc"/>
      <path id="Path_2222" data-name="Path 2222" d="M2.717,0H119.34a2.717,2.717,0,0,1,2.717,2.717V8.152a2.717,2.717,0,0,1-2.717,2.717H2.717A2.717,2.717,0,0,1,0,8.152V2.717A2.717,2.717,0,0,1,2.717,0Z" transform="translate(167.278 132.027)" fill="#2355f5"/>
      <path id="Path_2221" data-name="Path 2221" d="M2.717,0h24.91a2.717,2.717,0,0,1,2.717,2.717V8.152a2.717,2.717,0,0,1-2.717,2.717H2.717A2.717,2.717,0,0,1,0,8.152V2.717A2.717,2.717,0,0,1,2.717,0Z" transform="translate(258.991 98.286)" fill="#2355f5"/>
      <path id="Path_2220" data-name="Path 2220" d="M2.717,0H93.411a2.717,2.717,0,0,1,2.717,2.717V8.152a2.717,2.717,0,0,1-2.717,2.717H2.717A2.717,2.717,0,0,1,0,8.152V2.717A2.717,2.717,0,0,1,2.717,0Z" transform="translate(167.278 233.252)" fill="#cadcfc"/>
      <path id="Path_2219" data-name="Path 2219" d="M2.717,0h17.21a2.717,2.717,0,0,1,2.717,2.717V8.152a2.717,2.717,0,0,1-2.717,2.717H2.717A2.717,2.717,0,0,1,0,8.152V2.717A2.717,2.717,0,0,1,2.717,0Z" transform="translate(266.69 233.252)" fill="#cadcfc"/>
      <path id="Path_2218" data-name="Path 2218" d="M2.717,0H91.26a2.717,2.717,0,0,1,2.717,2.717V8.152A2.717,2.717,0,0,1,91.26,10.87H2.717A2.717,2.717,0,0,1,0,8.152V2.717A2.717,2.717,0,0,1,2.717,0Z" transform="translate(195.698 165.769)" fill="#97bff7"/>
      <path id="Path_2217" data-name="Path 2217" d="M2.717,0H22.645a2.717,2.717,0,0,1,2.717,2.717V8.152a2.717,2.717,0,0,1-2.717,2.717H2.717A2.717,2.717,0,0,1,0,8.152V2.717A2.717,2.717,0,0,1,2.717,0Z" transform="translate(167.618 165.769)" fill="#97bff7"/>
    </g>
    <g id="calender" transform="translate(88.175 941.131)">
      <path id="Path_467" data-name="Path 467" d="M98.062,810.537H595.651a8.3,8.3,0,0,0,6.222-2.809L716.738,677.552A8.3,8.3,0,0,0,710,663.778L136.25,699.555a8.3,8.3,0,0,0-7.163,5.134l-38.7,94.4A8.3,8.3,0,0,0,98.062,810.537Z" transform="translate(-2.982 -310.943)" fill="#97bff7"/>
      <path id="Path_468" data-name="Path 468" d="M440.737,495.037l-57.682,40.577L346.871,943.395,455.1,845.158Z" transform="translate(241.068 -471.092)" fill="#2355f5"/>
      <path id="Path_469" data-name="Path 469" d="M422.278,618.315l-2.614-63.7L368.74,590.192a8.4,8.4,0,0,0,.37,14.015l37.506,23.341-30.09,32.676a8.4,8.4,0,0,0,6.177,14.089h25.641L404.41,815.691l25.3-21.457L422.58,625.671H412.337Z" transform="translate(258.419 -414.543)" fill="#192684"/>
      <path id="Path_470" data-name="Path 470" d="M186.692,532.893c-11.465,63.192-52.464,282.2-84.1,362.437a21.04,21.04,0,0,0,19.544,28.8H578.46a5.5,5.5,0,0,0,5.471-4.8c4.6-35.763,33.134-262.613,32.809-382.3a21.035,21.035,0,0,0-21.016-20.989l-388.316-.417A21.017,21.017,0,0,0,186.692,532.893Z" transform="translate(7.789 -451.547)" fill="#4174f2"/>
      <path id="Path_471" data-name="Path 471" d="M149.472,542.385,195,500.446a26.192,26.192,0,0,1,14.942-6.787c47.531-5.14,280.224-27.433,417.61,12.1a2.556,2.556,0,0,1,.661,4.6l-56.368,36.5a2.561,2.561,0,0,1-1.394.411l-419.249-.45A2.558,2.558,0,0,1,149.472,542.385Z" transform="translate(52.914 -482.752)" fill="#3478f6"/>
      <path id="Path_472" data-name="Path 472" d="M99.939,924.7a5.237,5.237,0,0,1-4.8-7.37c10.516-23.6,42.853-100.757,57.848-188.731,16-93.888,39.2-189.209,44.26-209.613a5.234,5.234,0,0,1,5.115-3.976L616.5,516.633a5.244,5.244,0,0,1,5.191,5.9c-5.914,46.726-45.533,357.295-59.068,398.487a5.182,5.182,0,0,1-5.052,3.553C518.231,923.735,158.931,924.557,99.939,924.7Z" transform="translate(1.692 -452.135)" fill="#c6ddff"/>
      <path id="Path_473" data-name="Path 473" d="M118.238,816.952s-4.263,14.6-9.3,29.07c2.318-6.653,74.285,11.783,78.761,13.032,44.6,12.449,92.752,14.545,138.46,4.854,46.9-9.943,88.189-32.98,126.849-60.51,31.331-22.31,58.31-49.93,78.234-82.94,27.3-45.231,45.716-96.081,63.382-145.664,6.781-19.03,13.063-38.633,14.274-58.939,0,0-142.933,265.627-240.163,294.675S118.238,816.952,118.238,816.952Z" transform="translate(15.227 -451.333)" fill="#4174f2"/>
      <path id="Path_474" data-name="Path 474" d="M246.4,516.181a5.036,5.036,0,0,0-4.729,3.413c-6.974,20.412-44.911,127.533-86.739,169.9-31.77,32.183-77.687,67.759-103.408,86.941A15.637,15.637,0,0,0,53.771,802.9c23.262,11.861,62.212,27.727,101.163,25.725,61.37-3.154,96.869,34.15,158.841,28.134S505.706,845.331,576.7,734.021s92.658-213.9,92.658-217.357C669.361,513.4,287.571,515.9,246.4,516.181Z" transform="translate(-45.237 -452.143)" fill="#fff"/>
      <g id="Group_104" data-name="Group 104" transform="translate(93.105 107.543)">
        <path id="Path_475" data-name="Path 475" d="M105.973,741.153a14.737,14.737,0,0,1-8.5-25.183c30.618-29.908,86.36-86.08,97.523-109.15,10.787-22.293,22.32-46.578,28.384-59.382a14.724,14.724,0,0,1,14.315-8.4c28,1.9,106.751,7.091,133.3,7.091,25.862,0,118.1-2.953,157.124-8.075a14.717,14.717,0,0,1,16.352,17.385c-2.649,13.605-9.227,33.631-24.764,60.2-31.366,53.624-50.4,117.608-99.438,146.723a14.981,14.981,0,0,1-7.7,2.14c-19.016-.053-102.385-.52-142.883-4.662-45.646-4.668-100.63-14-140.571-16.6C120.009,742.648,112.358,741.921,105.973,741.153Z" transform="translate(-93.003 -537.926)" fill="#edf2f9"/>
        <g id="Group_103" data-name="Group 103">
          <g id="Group_102" data-name="Group 102" clip-path="url(#clip-path)">
            <g id="Group_101" data-name="Group 101" transform="translate(19.764 0.019)">
              <g id="Group_94" data-name="Group 94" transform="translate(35.128 0.581)">
                <path id="Path_476" data-name="Path 476" d="M125.227,753.166l-4.062-4.717c1.21-1.041,121.383-105.449,151.853-210.215L279,539.971C248.006,646.523,126.451,752.112,125.227,753.166Z" transform="translate(-121.165 -538.234)" fill="#fdbd28"/>
              </g>
              <g id="Group_95" data-name="Group 95" transform="translate(139.224 4.232)">
                <path id="Path_477" data-name="Path 477" d="M179.423,764.115l-4.853-3.9c1.208-1.507,121.011-151.5,126.356-220.111l6.206.483C301.637,611.112,184.411,757.9,179.423,764.115Z" transform="translate(-174.57 -540.107)" fill="#fdbd28"/>
              </g>
              <g id="Group_96" data-name="Group 96" transform="translate(236.658)">
                <path id="Path_478" data-name="Path 478" d="M229.483,771.594l-4.926-3.8c1.222-1.581,122.354-159.047,134.649-229.853L365.341,539C352.78,611.323,234.511,765.084,229.483,771.594Z" transform="translate(-224.557 -537.936)" fill="#fdbd28"/>
              </g>
              <g id="Group_100" data-name="Group 100" transform="translate(0 45.115)">
                <g id="Group_97" data-name="Group 97" transform="translate(83.444)">
                  <path id="Path_479" data-name="Path 479" d="M494.474,571.087c-1.706,0-171.148-.388-226.949-3.07-55.507-2.665-120.374,3-121.023,3.056l-.55-6.2c.653-.058,65.931-5.762,121.871-3.074,55.661,2.674,224.961,3.056,226.664,3.06Z" transform="translate(-145.953 -561.082)" fill="#fdbd28"/>
                </g>
                <g id="Group_98" data-name="Group 98" transform="translate(44.934 55.731)">
                  <path id="Path_480" data-name="Path 480" d="M401.931,614.974c-47.613,0-106.993-1.456-142.848-7.7-66.278-11.541-132.215-11.393-132.858-11.377l-.029-6.224c.667.017,67.12-.166,133.956,11.469,66.249,11.535,214.365,6.547,215.854,6.5l.214,6.22C475.528,613.883,443.137,614.974,401.931,614.974Z" transform="translate(-126.196 -589.674)" fill="#fdbd28"/>
                </g>
                <g id="Group_99" data-name="Group 99" transform="translate(0 107.106)">
                  <path id="Path_481" data-name="Path 481" d="M397.275,646.818c-47.139,0-106.632-1.692-140.532-9.138-60.2-13.221-152.672-15.406-153.6-15.428l.138-6.222c.932.02,94,2.218,154.8,15.57,60.113,13.2,207.41,7.879,208.892,7.822l.232,6.222C464.508,645.746,434.8,646.818,397.275,646.818Z" transform="translate(-103.143 -616.031)" fill="#fdbd28"/>
                </g>
              </g>
            </g>
          </g>
        </g>
      </g>
      <path id="Path_483" data-name="Path 483" d="M174.6,734.73s85.074-60.1,105.045-82.2,125.307,7.4,140.025.969c.045-.051-30.041,40.933-91.526,59.429C270.83,730.169,194.27,736.8,174.6,734.73Z" transform="translate(77.549 -329.528)" fill="#92c3f4"/>
    </g>
    <g id="Girl" transform="translate(307.316 598.035)">
      <ellipse id="Ellipse_15" data-name="Ellipse 15" cx="56.311" cy="8.751" rx="56.311" ry="8.751" transform="translate(46.955 367.685)" fill="#2355f5"/>
      <ellipse id="Ellipse_16" data-name="Ellipse 16" cx="51.292" cy="8.751" rx="51.292" ry="8.751" transform="translate(316.714 376.436)" fill="#2355f5"/>
      <g id="Girl-2" data-name="Girl">
        <path id="Path_484" data-name="Path 484" d="M372.717,486.032s-4.364,6.976-1.807,11.939,41.063,12.034,45.426,16.7-.15,8.424-5.565,9.025-87.694,7.07-87.393,0,12.566-27.482,11.323-35.025S372.717,486.032,372.717,486.032Z" transform="translate(-0.373 -138.033)" fill="#192684"/>
        <path id="Path_485" data-name="Path 485" d="M336.613,448.239a4.654,4.654,0,0,1,3.01,5.565,20.38,20.38,0,0,0-.111,10.6h0s-22.638,1.579-45.576-2.633c-17.566-3.224-68.853-18.3-68.853-18.3s1.916-20.88,10.34-24.187C242.764,416.389,317.515,441.688,336.613,448.239Z" transform="translate(-93.671 -200.125)" fill="#2253f6"/>
        <path id="Path_486" data-name="Path 486" d="M302.133,437.5l6.146-13.51s-35.458.893-38.229-1.8c-1.183.306,4.75,5.274,16.032,8.056,8.42,2.078,12.9,5.783,14.634,7.528A.877.877,0,0,0,302.133,437.5Z" transform="translate(-51.131 -197.144)" fill="#b01f1a"/>
        <path id="Path_487" data-name="Path 487" d="M274.982,465.424a5.841,5.841,0,0,1,1.9-7.12c21.585-15.687,127.9-89.481,144.542-33.717,18.535,62.122-4.836,145.148-4.836,145.148s-22.761,5.959-33.2,2.4S361.58,479.5,361.58,479.5l-55.444,38.516a5.847,5.847,0,0,1-8.672-2.413Z" transform="translate(-46.795 -214.354)" fill="#129f72"/>
        <g id="Group_105" data-name="Group 105" transform="translate(291.208 223.305)">
          <path id="Path_488" data-name="Path 488" d="M320.687,421.418l0-.123c-.006.053-.014.107-.018.16Z" transform="translate(-294.147 -421.295)" fill="#037a4a"/>
          <path id="Path_489" data-name="Path 489" d="M329.53,423.795c-2.32,27.4-22.466,53.509-22.466,53.509l23.575-16.975A173.95,173.95,0,0,1,329.53,423.795Z" transform="translate(-307.064 -418.922)" fill="#037a4a"/>
        </g>
        <path id="Path_490" data-name="Path 490" d="M322.783,463.42s10.826-9.927,29.513,4.259c12.171,9.241,19.139,36.518,4.631,50.291S296.972,475.569,322.783,463.42Z" transform="translate(-8.323 -161.212)" fill="#037a4a"/>
        <path id="Path_491" data-name="Path 491" d="M352.867,336.684a4.412,4.412,0,0,1,4.793-3.7c12.909,1.306,47.083,5.156,51.948,9.765,6.017,5.7-13.087,67.676-16.847,70.855-3.573,3.021-43.25-14.34-62.8-19.2a2.9,2.9,0,0,1-1.82-4.224C333.829,379.9,350.754,349.055,352.867,336.684Z" transform="translate(3.799 -281.832)" fill="#007aff"/>
        <path id="Path_492" data-name="Path 492" d="M372.89,383.378c4.185-7.561,14.426-26.218,20.4-40.5-.433-2-1.5-3.224-3.292-2.563-4.8,1.774-5.676,8.586-13.66,12.837-15.3,13.028-7.584,20.234-17.5,29.823-14.923,15.393-71.43,49.228-71.43,49.228-21.11,13.7,12.993,54.07,31.707,37.2h0s61.491-70.032,67.808-78.149c-4.5-1.5-8.689-2.781-12.214-3.657A2.9,2.9,0,0,1,372.89,383.378Z" transform="translate(-40.841 -275.023)" fill="#fac896"/>
        <path id="Path_493" data-name="Path 493" d="M300.842,501.46a5.847,5.847,0,0,0-2.932-5.068l-32.584-18.757s-8.955-7.489-25.215,6.477-21.32,15.933-50.71,25.731c-15.5,6.144-10.625,14.379,33.963,13.773,33.631-.458,60.608-1.275,71.833-1.647a5.842,5.842,0,0,0,5.645-5.844Z" transform="translate(-135.127 -146.417)" fill="#192684"/>
        <path id="Path_494" data-name="Path 494" d="M240.282,485.828l-6.617-4.265a1.234,1.234,0,0,0-1.893,1.191l4.222,33.571a1.234,1.234,0,0,0,1.224,1.08h3.807a1.236,1.236,0,0,0,1.234-1.294l-1.411-29.3A1.238,1.238,0,0,0,240.282,485.828Z" transform="translate(-87.332 -140.974)" fill="#142160"/>
        <path id="Path_495" data-name="Path 495" d="M325.282,370.088l-17.018,50.184a10.641,10.641,0,0,1-14.738,6.148L264.541,412.3a10.641,10.641,0,0,1-5.3-13.315l20.365-54.1a10.64,10.64,0,0,1,16.081-4.953l25.638,18.038A10.638,10.638,0,0,1,325.282,370.088Z" transform="translate(-61.896 -277.065)" fill="#fac896"/>
        <path id="Path_496" data-name="Path 496" d="M301.034,372.4l3.4-10.422c1.006-3.084-.257-6.807-2.345-7.348l-21.907-5-.842.343c-.762,1.072.614,3.561,1.626,4.629l17.244,18.905C299.18,374.533,300.508,374.012,301.034,372.4Z" transform="translate(-42.381 -266.014)" fill="#f39c55"/>
        <path id="Path_497" data-name="Path 497" d="M278.587,320.809s19.876-24.392,44.361-8.96,15.556,36.327,7.777,43.054S278.587,320.809,278.587,320.809Z" transform="translate(-42.886 -306.732)" fill="#f97700"/>
        <path id="Path_498" data-name="Path 498" d="M310.16,394.509s57.228,5.341,34.826-47.032-61.98-28.25-70.211-17.042S264.846,392.554,310.16,394.509Z" transform="translate(-50.841 -298.843)" fill="#fac896"/>
        <path id="Path_499" data-name="Path 499" d="M299.579,318.632a14.234,14.234,0,0,1,14.773-.3,7.568,7.568,0,0,1,2.84,2.764c2.045,3.951,3.378,13.352-5.67,20.843s-22.01,8.8-29.076,11.467C276.2,355.764,282.571,328.895,299.579,318.632Z" transform="translate(-41.453 -297.546)" fill="#f39c55"/>
        <path id="Path_500" data-name="Path 500" d="M265.568,426.91c-11.36-4.257-33.639-13.935-77.8-1.784,0,0,24.109,11.13,42.761,26.172a140.679,140.679,0,0,0,25.833,16.065C257.642,451.131,262.274,435.986,265.568,426.91Z" transform="translate(-129.09 -199.961)" fill="#b01f1a"/>
        <path id="Path_501" data-name="Path 501" d="M235.12,495.636l-.618,27.678a4.811,4.811,0,0,0,4,4.851c18.451,3.13,94.278,15.313,124.557,9.52,34.6-6.617,70.872-23.334,69.43-54.836-9.574-24.139-166.7,3.3-193.433,8.161A4.8,4.8,0,0,0,235.12,495.636Z" transform="translate(-84.731 -148.867)" fill="#129f72"/>
        <path id="Path_502" data-name="Path 502" d="M245.438,475.3a.726.726,0,0,0-.376,1.337A154.056,154.056,0,0,0,310.231,498.5c40.11,3.815,77.829,2.686,86.639-3.349C405.7,489.11,267.15,477.514,245.438,475.3Z" transform="translate(-75.021 -146.737)" fill="#037a4a"/>
        <path id="Path_503" data-name="Path 503" d="M392.372,485.333c-51.445-25.873-83.934-39.108-86.039-44.825-1.682-4.567-45.808-16.239-63.479-20.747a8.539,8.539,0,0,0-10.108,5.319c-8.726,23.318-30.167,96.572,38.691,110.191,82.127,16.245,172.378,15.042,172.378,5.115S443.817,511.2,392.372,485.333Z" transform="translate(-96.011 -199.7)" fill="#129f72"/>
        <path id="Path_504" data-name="Path 504" d="M436.021,356.392c-.852-3.228-4.011-10.631-8.424-8.824s6.543,13.913-6.015,34.093c-3.978,6.389-7.245-1.006-7.261-1.049a34.955,34.955,0,0,1-.265-6.84c.327-5.518-7-14.7-9.5-10.231s1.277,10.214-2.023,18.636c-.628,3.957-1.173,12.978-1.411,13.141-40.438,27.593-77.09,32.542-91.042,33.393a5.825,5.825,0,0,0-5.467,6.3c.895,10.9,2.774,33.54,3.879,45.067a5.857,5.857,0,0,0,7.614,5.007C407.044,456.245,446.459,395.965,436.021,356.392Z" transform="translate(-18.202 -268.236)" fill="#fac896"/>
        <path id="Path_505" data-name="Path 505" d="M242.3,421.561a16.448,16.448,0,0,0-13.672,9.845c-2.3,5.29-4.7,12.2-4.664,18.012.06,11.171,82.17,7.272,91.672,8.734C324.531,459.521,288.159,417.678,242.3,421.561Z" transform="translate(-94.734 -197.98)" fill="#037a4a"/>
        <path id="Path_506" data-name="Path 506" d="M443.354,464.185c4.8-4.935,1.945-47.527,1.544-58.67a2.471,2.471,0,0,0-2.52-2.374,66.513,66.513,0,0,1-21.87-3.318c-8.976-2.99-24.488-13.412-33.347-19.665-.041-.029-.078-.058-.117-.092a51.445,51.445,0,0,0-6.485-4.672l-.117-.088-.008.014c-43.33-26.127-105.983,27.158-118.315,42.855-10.336,13.155-54.6,40.432-73.511,51.757a2.361,2.361,0,0,0,1.322,4.388c18.1-.823,56.862-.4,83.622,15.155,30.754,17.874,85.854,22.885,98.874,23.265a2.278,2.278,0,0,0,2.273-2.6c-.813-7.8,4.775-19.724,11.323-33.633a2.378,2.378,0,0,1,1.961-1.362C413.9,473.05,441.879,465.7,443.354,464.185Z" transform="translate(-129.392 -248.364)" fill="#e62822"/>
        <circle id="Ellipse_17" data-name="Ellipse 17" cx="2.222" cy="2.222" r="2.222" transform="translate(265.251 56.905)" fill="#231f20"/>
        <circle id="Ellipse_18" data-name="Ellipse 18" cx="2.222" cy="2.222" r="2.222" transform="translate(284.356 48.919)" fill="#231f20"/>
        <g id="Group_106" data-name="Group 106" transform="translate(257.939 50.715)">
          <path id="Path_507" data-name="Path 507" d="M290.575,338.043a.58.58,0,0,1-.386-1.012c.207-.185,5.109-4.563,8.549-4.267a.579.579,0,0,1,.532.622.569.569,0,0,1-.624.532c-2.44-.181-6.374,2.8-7.684,3.978A.577.577,0,0,1,290.575,338.043Z" transform="translate(-289.996 -332.751)" fill="#231f20"/>
        </g>
        <g id="Group_107" data-name="Group 107" transform="translate(276.719 40.022)">
          <path id="Path_508" data-name="Path 508" d="M300.179,333.008a.541.541,0,0,1-.37-.144.549.549,0,0,1-.033-.776c.177-.195,4.4-4.76,7.654-4.822a.549.549,0,1,1,.021,1.1c-2.316.045-5.742,3.24-6.867,4.468A.555.555,0,0,1,300.179,333.008Z" transform="translate(-299.631 -327.265)" fill="#231f20"/>
        </g>
        <g id="Group_108" data-name="Group 108" transform="translate(279.134 56.418)">
          <path id="Path_509" data-name="Path 509" d="M304.837,347.9a.487.487,0,0,1,0-.975c.762,0,2.877-1.261,2.99-2.776.072-.94-3.47-4.69-6.791-7.625a.486.486,0,0,1-.043-.688.491.491,0,0,1,.688-.043c1.706,1.507,7.259,6.569,7.118,8.43C308.641,346.312,306.067,347.9,304.837,347.9Z" transform="translate(-300.87 -335.676)" fill="#f97700"/>
        </g>
        <path id="Path_510" data-name="Path 510" d="M301.775,349.317s7.658-1.949,10.257-5.2C312.519,343.794,312.959,356.3,301.775,349.317Z" transform="translate(-20.877 -271.251)" fill="#edf2f9"/>
        <circle id="Ellipse_19" data-name="Ellipse 19" cx="0.794" cy="0.794" r="0.794" transform="translate(259.355 67.42)" fill="#f97700"/>
        <circle id="Ellipse_20" data-name="Ellipse 20" cx="0.794" cy="0.794" r="0.794" transform="translate(265.816 66.626)" fill="#f97700"/>
        <circle id="Ellipse_21" data-name="Ellipse 21" cx="0.794" cy="0.794" r="0.794" transform="translate(263.663 70.518)" fill="#f97700"/>
        <circle id="Ellipse_22" data-name="Ellipse 22" cx="0.689" cy="0.689" r="0.689" transform="translate(289.109 57.241)" fill="#f97700"/>
        <circle id="Ellipse_23" data-name="Ellipse 23" cx="0.689" cy="0.689" r="0.689" transform="translate(293.481 53.663)" fill="#f97700"/>
        <circle id="Ellipse_24" data-name="Ellipse 24" cx="0.689" cy="0.689" r="0.689" transform="translate(293.707 57.517)" fill="#f97700"/>
        <path id="Path_511" data-name="Path 511" d="M396.887,379.783l2.388-1.136s-8.955-12.828,11.6-20.965,25.641-33.8,11.243-44.765c-9.861-7.51-25.511-6.791-36.878-4.093a51.348,51.348,0,0,0-20.219,9.426c-6.939,5.538-9.138,13.619-14.9,19.985-4.635,5.126-11.541,7.485-18.229,9.229-35.07,9.151-70.937,10.514-101.716,31.937-16,10.644-37.177,8.479-52.316,20.5-7.5,5.957-12.412,14.687-15.346,23.807-4.612,14.34-7.966,32-.326,45.934,5.723,10.438,16.611,16.024,27.879,18.509,15.188,3.351,31.364,2.166,46.607-.144,48.73-7.385,43.4,9.147,82.127-21.047,11.108-8.428,43.116-7.165,76.815-68.342.624-3.491-18.587-2.078-18.6-19.973S396.285,375.427,396.887,379.783Z" transform="translate(-157.664 -306.54)" fill="#f97700"/>
      </g>
    </g>
    <g id="box" transform="translate(723.676 1026.275)">
      <path id="Path_512" data-name="Path 512" d="M392.818,614.253l72.617-54.364H747.613l-70.2,53.229Z" transform="translate(-350.821 -494.679)" fill="#f7a90d"/>
      <path id="Path_513" data-name="Path 513" d="M387.181,797.215h343.29a8.3,8.3,0,0,0,6.567-3.228l72.646-94.058a8.3,8.3,0,0,0-6.567-13.373H411.953a8.3,8.3,0,0,0-8.025,6.185L379.154,786.8A8.3,8.3,0,0,0,387.181,797.215Z" transform="translate(-364.054 -374.449)" fill="#97bff7"/>
      <path id="Path_514" data-name="Path 514" d="M430.073,591.644l18.907-59.427a8.3,8.3,0,0,1,7.91-5.783H719.045a8.3,8.3,0,0,1,8.011,10.465l-14.8,54.745Z" transform="translate(-315.459 -526.434)" fill="#fdbd28"/>
      <path id="Path_515" data-name="Path 515" d="M446.233,656.72c8.914-11.789,47.732-65.235,54.078-109.981a2.053,2.053,0,0,1,2.333-1.77c10.629,1.577,59.241,5.955,76.579-3.134a2.061,2.061,0,0,1,3.056,1.85c-.485,20.2-5.984,113.4-38.861,143.639a2.075,2.075,0,0,1-2.019.44c-9.67-2.99-79.024-23.386-94.1-27.821A2.057,2.057,0,0,1,446.233,656.72Z" transform="translate(-300.521 -512.053)" fill="#8dbffc"/>
      <path id="Path_516" data-name="Path 516" d="M413.957,627.68l-38.771-24.131a8.3,8.3,0,0,1-.368-13.851l60.775-42.459a8.3,8.3,0,0,1,9.36-.1l40.933,27.31Z" transform="translate(-371.272 -508.106)" fill="#fdbd28"/>
      <path id="Path_517" data-name="Path 517" d="M426.587,605.548c-1-6.847-4.351-33.668,1.548-52.552a2.067,2.067,0,0,1,2.169-1.425c8.227.768,44.459,5.7,58.914,1.51a2.054,2.054,0,0,1,2.553,2.487c-2.612,10.426-8.756,37.816-6.834,45.915,2.181,9.194-46.767,6.45-56.446,5.818A2.049,2.049,0,0,1,426.587,605.548Z" transform="translate(-320.528 -502.583)" fill="#f97700"/>
      <path id="Path_518" data-name="Path 518" d="M479.18,553.624c-8.481,1.565-32.183,5.933-53.9,9.9-1.729,17.094.518,34.957,1.331,40.508a2.183,2.183,0,0,0,2.029,1.869c6.968.454,33,1.93,48.476-.17.117-20.318,3.386-41.574,4.735-49.49A2.28,2.28,0,0,0,479.18,553.624Z" transform="translate(-320.614 -500.663)" fill="#ff5a25"/>
      <path id="Path_519" data-name="Path 519" d="M505.042,638.144c.807-.62,17.018-38.785,20.509-72.272a2.043,2.043,0,0,1,2.179-1.85c10.118.731,55.7,1.444,55.856,1.429l25.219.756a2.069,2.069,0,0,1,1.934,2.608c-1.507,5.744-7.832,23.69-33.776,76.856a2.077,2.077,0,0,0-.173,1.322c.148.733.4,1.951.637,3.126a2.074,2.074,0,0,1-2.51,2.433c-13.716-3.224-67.307-15.071-68.336-15.323C506.566,637.228,505.032,638.152,505.042,638.144Z" transform="translate(-244.3 -490.761)" fill="#ff5a25"/>
      <path id="Path_520" data-name="Path 520" d="M544.474,565.2c-17.49.06-39.163.107-47.094,0a2.237,2.237,0,0,0-2.247,2.661c2.982,14.82-8.906,49.9-12.629,60.325a2.262,2.262,0,0,0,2.1,3.025c7.561.123,27.23.421,44.184.511C536.7,611.29,541.542,586.789,544.474,565.2Z" transform="translate(-265.82 -489.64)" fill="#69b6f4"/>
      <path id="Path_521" data-name="Path 521" d="M485.283,626.194c3.4-9.526,14.258-41.566,11.533-55.1a2.044,2.044,0,0,1,2.052-2.431c11.362.154,53.6-.037,63.545-.086a2.061,2.061,0,0,1,2.08,2.1c-.17,8.8-1.45,42.8-11.038,58.232.3,1.06-53.088.261-66.255.047A2.064,2.064,0,0,1,485.283,626.194Z" transform="translate(-263.172 -486.436)" fill="#4174f2"/>
      <path id="Path_522" data-name="Path 522" d="M533.294,647.7c.487-.893-.078-42.354-10.4-74.4a2.038,2.038,0,0,1,1.249-2.569c9.553-3.415,51.542-21.152,51.683-21.232,0,0,17.166-6.964,23.379-9.483a2.069,2.069,0,0,1,2.822,1.606c.938,5.865,2.392,24.834.107,83.949a2.075,2.075,0,0,0,.374,1.279c.433.61,1.152,1.626,1.844,2.6a2.074,2.074,0,0,1-1.314,3.24c-13.851,2.585-67.666,13.369-68.709,13.555C534.319,646.242,533.288,647.708,533.294,647.7Z" transform="translate(-227.45 -513.696)" fill="#f97700"/>
      <path id="Path_523" data-name="Path 523" d="M403.689,635.729c-1.017-9.74-4.664-50.1,3.167-62.713a2,2,0,0,1,1.4-.9c8.222-1.323,71.613-13,86.091-15.673a2.066,2.066,0,0,1,2.421,2.376c-1.676,9.843-6.635,42.426-3,64.378a2.072,2.072,0,0,1-1.785,2.423c-12.4,1.5-73.747,10.2-85.953,11.937A2.06,2.06,0,0,1,403.689,635.729Z" transform="translate(-342.151 -497.981)" fill="#129f72"/>
      <path id="Path_524" data-name="Path 524" d="M472.7,618.909c-3.015-18.2-.766-42.894,1.372-59.011-26.665,2.906-44.74,16.264-45.334,17.453-4.723,9.738-2.479,36.656-.977,50.121,18.775-2.624,36.58-5.078,42.935-5.846A2.325,2.325,0,0,0,472.7,618.909Z" transform="translate(-319.425 -494.671)" fill="#037a4a"/>
      <path id="Path_525" data-name="Path 525" d="M433.343,629.89a2.055,2.055,0,0,1-2.351-1.776c-1.051-8.2-4.483-38.239.279-48.059.682-1.362,27.918-21.225,63.814-13.991a2.092,2.092,0,0,1,1.669,1.957c.277,6.964.727,34.547,4.033,49.661a2.058,2.058,0,0,1-1.727,2.466C488.481,621.7,443.56,628.373,433.343,629.89Z" transform="translate(-316.657 -490.319)" fill="#c6ddff"/>
      <path id="Path_526" data-name="Path 526" d="M527.778,603.9s11.592,7.313,20.151,0,50.538-45.065,50.538-45.065.3,12.7-.741,26.018-50.659,49.726-61.382,41.831C532.368,622.595,531.772,629.625,527.778,603.9Z" transform="translate(-222.719 -495.68)" fill="#e56a05"/>
      <path id="Path_527" data-name="Path 527" d="M540.093,613.117l70.2-53.228V820.551a8.3,8.3,0,0,1-2.518,5.955l-70.284,68.245Z" transform="translate(-213.5 -494.679)" fill="#f7a90d"/>
      <path id="Path_528" data-name="Path 528" d="M538.826,613.117l55.559,40.738a8.3,8.3,0,0,0,10.855-.9l47.053-48.342a8.3,8.3,0,0,0-.912-12.385l-42.356-32.335Z" transform="translate(-212.233 -494.679)" fill="#fdbd28"/>
      <path id="Path_2216" data-name="Path 2216" d="M0,0H283.908V275.608a8.3,8.3,0,0,1-8.3,8.3H8.3a8.3,8.3,0,0,1-8.3-8.3Z" transform="translate(42.686 118.439)" fill="#fdbd28"/>
      <path id="Path_529" data-name="Path 529" d="M409.559,587.2l-31.444,34.146a8.3,8.3,0,0,0,6.107,13.923H658.945a8.3,8.3,0,0,0,7.046-3.916L693.467,587.2Z" transform="translate(-366.874 -468.759)" fill="#ffc248"/>
    </g>
    <g id="elements" transform="translate(394.304 227.449)">
      <path id="Path_530" data-name="Path 530" d="M701.893,448.123a14.1,14.1,0,1,1,14.1-14.1A14.12,14.12,0,0,1,701.893,448.123Zm0-23.782a9.679,9.679,0,1,0,9.68,9.68A9.69,9.69,0,0,0,701.893,424.341Zm79.942-93.126v-9.756a2.212,2.212,0,0,0-4.425,0v9.756a2.212,2.212,0,1,0,4.425,0Zm0,17.075v-9.758a2.212,2.212,0,0,0-4.425,0v9.758a2.212,2.212,0,1,0,4.425,0Zm13.695-13.416a2.213,2.213,0,0,0-2.212-2.212h-8.766a2.212,2.212,0,0,0,0,4.425h8.766A2.213,2.213,0,0,0,795.53,334.874Zm-18.626,0a2.212,2.212,0,0,0-2.212-2.212h-8.763a2.212,2.212,0,0,0,0,4.425h8.763A2.212,2.212,0,0,0,776.9,334.874Z" transform="translate(258.533 75.733)" fill="#f3c04c"/>
      <g id="Group_110" data-name="Group 110">
        <g id="Group_109" data-name="Group 109" transform="translate(9.524 79.848)">
          <path id="Path_531" data-name="Path 531" d="M221.054,186.666c-7.652,0-13.876-6.526-13.876-14.547s6.224-14.547,13.876-14.547,13.874,6.526,13.874,14.547S228.7,186.666,221.054,186.666Zm0-24.53a9.994,9.994,0,1,0,9.522,9.984A9.772,9.772,0,0,0,221.054,162.136Z" transform="translate(-207.178 -157.573)" fill="#499d75"/>
        </g>
        <path id="Path_532" data-name="Path 532" d="M216.168,145.7c-7.651,0-13.876-6.526-13.876-14.547s6.226-14.547,13.876-14.547,13.876,6.526,13.876,14.547S223.819,145.7,216.168,145.7Zm67.1.791V136.429a2.18,2.18,0,1,0-4.354,0v10.064a2.18,2.18,0,1,0,4.354,0Zm0,17.609V154.038a2.18,2.18,0,1,0-4.354,0V164.1a2.18,2.18,0,1,0,4.354,0Zm13.473-13.837a2.23,2.23,0,0,0-2.175-2.281h-8.623a2.284,2.284,0,0,0,0,4.563h8.623A2.231,2.231,0,0,0,296.738,150.264Zm-18.324,0a2.23,2.23,0,0,0-2.175-2.281h-8.623a2.284,2.284,0,0,0,0,4.563h8.623A2.231,2.231,0,0,0,278.413,150.264Z" transform="translate(-202.292 -116.608)" fill="#2355f5"/>
      </g>
    </g>
    <g id="plant" transform="translate(1214.203 888.497)">
      <ellipse id="Ellipse_25" data-name="Ellipse 25" cx="56.002" cy="10.953" rx="56.002" ry="10.953" transform="translate(31.396 413.352)" fill="#97bff7"/>
      <g id="Group_111" data-name="Group 111" transform="translate(27.811)">
        <path id="Path_533" data-name="Path 533" d="M695.954,528.354s-41.687-66.913-6.3-72.521C689.651,455.833,714.086,450.344,695.954,528.354Zm29.129-23.737c-28.279-10.553-24.355,56-24.355,56C745.269,510.72,725.083,504.617,725.083,504.617Zm22.881,42.3c-29.971-22.924-48.747,57.782-48.747,57.782C769.85,561.572,747.964,546.918,747.964,546.918Zm11.358,45.97c-29.8-28.228-59.093,56.752-59.093,56.752C781.327,611.243,759.322,592.887,759.322,592.887Zm-61.085-19.969s-16.1-64.621-39.9-45.812C658.337,527.106,640.929,539.162,698.237,572.918Zm4.119,53.468s-30.019-77.094-56.427-50C645.929,576.388,626.347,594.1,702.355,626.386Zm-5.181,50.673s-26.191-86.025-57-58.932C640.175,618.127,617.525,635.649,697.175,677.059Z" transform="translate(-637.198 -455.749)" fill="#8dbffc"/>
        <path id="Path_534" data-name="Path 534" d="M681.437,657.217a1.942,1.942,0,0,0,.764.518q-1.076,12.452-2.737,25.125a7.986,7.986,0,0,1-.074,2.589c1.183.055,2.368.1,3.553.164,2.392-17.554,3.918-34.945,4.715-51.731,4.881-15.284,24.1-30.542,24.291-30.692a1.99,1.99,0,0,0,.349-2.752,1.907,1.907,0,0,0-2.705-.357c-.676.54-13.886,11.038-21.538,23.848q.3-9.19.347-18.069a1.883,1.883,0,0,0,.006-.723c.043-7.479-.027-14.781-.2-21.846,4.653-8.489,22.092-30.093,22.269-30.314a2,2,0,0,0-.261-2.766,1.908,1.908,0,0,0-2.711.273c-.62.76-12.748,15.8-19.5,25.827-.286-8.536-.706-16.681-1.208-24.386.006-.039.037-.057.039-.1.029-.257,2.922-26.121,14.1-46.453a1.979,1.979,0,0,0-.735-2.672,1.907,1.907,0,0,0-2.622.75c-6.12,11.136-9.81,23.593-11.948,33.027-2.918-34.23-7.081-56.359-7.179-56.852a1.92,1.92,0,0,0-2.265-1.548,1.957,1.957,0,0,0-1.515,2.3c.1.534,4.988,26.511,7.863,65.732l-17.8-19.578a1.9,1.9,0,0,0-2.717-.1,1.99,1.99,0,0,0-.105,2.774l21.055,23.152c.922,14.167,1.546,29.867,1.6,46.6-7.976-10.034-23.716-22.437-24.513-23.065a1.9,1.9,0,0,0-2.7.361,1.984,1.984,0,0,0,.351,2.75c.224.176,22.092,17.391,26.854,26.852-.1,14.993-.67,30.715-1.93,46.843-15.122-17.126-26.938-29.464-27.061-29.593a1.9,1.9,0,0,0-2.723-.031,1.992,1.992,0,0,0-.033,2.774C652.942,625.979,665.567,639.158,681.437,657.217Z" transform="translate(-622.893 -434.597)" fill="#3478f6"/>
      </g>
      <g id="Group_112" data-name="Group 112" transform="translate(85.421 59.806)">
        <path id="Path_535" data-name="Path 535" d="M746.031,547.095s-13.06-67,17.617-60.175C763.648,486.919,785.335,490.329,746.031,547.095Zm31.253-9.719c-19.792-17.515-37.477,37.116-37.477,37.116C791.864,548.72,777.284,537.376,777.284,537.376Zm5.417,41.241c-17.293-27.969-57.969,30.746-57.969,30.746C795.987,597.364,782.7,578.617,782.7,578.617Zm-5.148,40.5c-15.494-32.171-66.1,26.616-66.1,26.616C789.771,640.87,777.553,619.113,777.553,619.113Zm-43.644-35.551s7.132-56.973-18.219-49.5C715.69,534.064,697.682,538.161,733.909,583.562Zm-13.418,44.2s-.326-71.43-30.411-58.146C690.08,569.617,668.52,577.56,720.491,627.763Zm-20.137,38.978s5.6-77.365-28.076-65.489C672.278,601.253,648.27,608.059,700.354,666.741Z" transform="translate(-666.754 -486.432)" fill="#c6ddff"/>
        <path id="Path_536" data-name="Path 536" d="M753.252,530.849a1.633,1.633,0,0,0-2.314-.154c-8.467,6.994-15.467,15.726-20.25,22.523,8.978-27.714,12.989-46.277,13.077-46.691a1.522,1.522,0,0,0-1.271-1.858,1.757,1.757,0,0,0-1.945,1.372c-.1.444-4.809,22.24-15.467,53.864l-7.532-20.453a1.561,1.561,0,0,0-2.1-.856,1.731,1.731,0,0,0-1,2.15l8.916,24.185c-3.936,11.385-8.619,23.9-14.085,37.052-2.959-10.153-11.237-24.386-11.658-25.105a1.6,1.6,0,0,0-2.238-.489,1.689,1.689,0,0,0-.632,2.263c.117.2,11.627,19.96,12.249,28.743-5.015,11.752-10.639,23.934-16.936,36.237-6.237-17.763-11.455-30.824-11.51-30.959a1.57,1.57,0,0,0-2.128-.8,1.725,1.725,0,0,0-.936,2.171c.053.14,5.633,14.091,12.149,32.795a1.484,1.484,0,0,0,.431.626c-2.466,4.719-5.06,9.444-7.719,14.163,1.168.092,2.335.193,3.5.288,5.929-10.584,11.395-21.2,16.35-31.631,8.865-10.605,28.982-17.112,29.179-17.168a1.747,1.747,0,0,0,1.181-2.068A1.551,1.551,0,0,0,728.564,610c-.7.228-14.537,4.7-24.764,12.584q3.263-7.131,6.222-14.091a1.679,1.679,0,0,0,.244-.565c2.493-5.859,4.842-11.613,7.029-17.211,6.452-5.341,27.259-17.338,27.472-17.455a1.71,1.71,0,0,0,.7-2.247,1.586,1.586,0,0,0-2.218-.557c-.733.421-15.211,8.767-23.817,14.72,2.583-6.781,4.939-13.3,7.079-19.5.018-.027.051-.037.066-.066.1-.193,10.89-19.675,26.367-32.456A1.659,1.659,0,0,0,753.252,530.849Z" transform="translate(-658.563 -469.139)" fill="#3478f6"/>
      </g>
      <g id="Group_114" data-name="Group 114" transform="translate(0 118.409)">
        <g id="Group_113" data-name="Group 113" transform="translate(9.515)">
          <path id="Path_537" data-name="Path 537" d="M644.244,558.412s8.867-46.357-12.33-41.568C631.914,516.844,616.926,519.255,644.244,558.412Z" transform="translate(-627.811 -516.497)" fill="#edf2f9"/>
        </g>
        <path id="Path_538" data-name="Path 538" d="M627.242,536c13.644-12.159,26.008,25.573,26.008,25.573C617.188,543.885,627.242,536,627.242,536Zm36.516,49.651s-28.271-40.5-40.159-21.121C623.6,564.535,614.457,577.532,663.758,585.656Zm9.272,25.113s-35.138-40.527-45.773-18.242C627.258,592.527,618.862,607.6,673.03,610.77Zm-3.2-77.207c-17.55-5.107-12.477,34.272-12.477,34.272C682.291,536.352,669.828,533.563,669.828,533.563Zm17.8,24.525c-20.837-9.115-20.887,40.282-20.887,40.282C702.552,563.525,687.624,558.087,687.624,558.087Zm12.387,21.831c-23.316-8.13-19.252,45.355-19.252,45.355C716.629,584.565,700.011,579.918,700.011,579.918Z" transform="translate(-622.93 -500.732)" fill="#c6ddff"/>
        <path id="Path_539" data-name="Path 539" d="M666.3,617.952c2.77,6.12,5.8,12.317,9.048,18.511.869-.006,1.74-.031,2.608-.033q-1.719-3.24-3.353-6.483a1.16,1.16,0,0,0,.318-.458c5-13.543,9.239-23.659,9.278-23.76a1.168,1.168,0,1,0-2.154-.9c-.041.1-4.005,9.57-8.787,22.431-4.243-8.649-8.009-17.229-11.348-25.513.612-6.3,9.181-20.716,9.268-20.864a1.169,1.169,0,1,0-2.008-1.2c-.312.524-6.477,10.91-8.777,18.246-3.637-9.278-6.725-18.116-9.305-26.166l6.811-17.521a1.169,1.169,0,0,0-2.177-.85L649.969,568.2a375.384,375.384,0,0,1-9.962-38.159,1.168,1.168,0,0,0-2.3.425c.054.294,2.551,13.479,8.4,33.087a76.425,76.425,0,0,0-13.974-15.621,1.169,1.169,0,1,0-1.475,1.813c10.763,8.766,18.061,22.441,18.131,22.577.012.02.033.027.047.045,1.4,4.38,2.953,8.988,4.659,13.777-6.005-4.048-16.145-9.668-16.658-9.953a1.169,1.169,0,1,0-1.132,2.045c.148.078,14.72,8.155,19.207,11.82,1.448,3.951,3.008,8.009,4.666,12.141a1.122,1.122,0,0,0,.164.4q1.976,4.906,4.156,9.931c-7.126-5.391-16.88-8.255-17.377-8.4a1.169,1.169,0,1,0-.647,2.247C646.016,606.414,660.2,610.578,666.3,617.952Z" transform="translate(-616 -504.542)" fill="#3478f6"/>
      </g>
      <path id="Path_540" data-name="Path 540" d="M640.633,602.561l15.439,144.154a11.786,11.786,0,0,0,11.72,10.531h47.815a11.787,11.787,0,0,0,11.73-10.619l14.492-145.537a11.788,11.788,0,0,0-11.939-12.954l-77.749,1.384A11.789,11.789,0,0,0,640.633,602.561Z" transform="translate(-606.191 -330.093)" fill="#013bff"/>
      <path id="Path_2215" data-name="Path 2215" d="M3.066,0h105.25a3.066,3.066,0,0,1,3.066,3.066V22.481a3.066,3.066,0,0,1-3.066,3.066H3.066A3.066,3.066,0,0,1,0,22.481V3.066A3.066,3.066,0,0,1,3.066,0Z" transform="translate(29.146 245.265)" fill="#007aff"/>
    </g>
  </g>
</svg>
